<svg xmlns="http://www.w3.org/2000/svg" xmlns:xlink="http://www.w3.org/1999/xlink" width="2560" zoomAndPan="magnify" viewBox="0 0 1920 1079.999946" height="1440" preserveAspectRatio="xMidYMid meet" version="1.0"><defs><filter x="0%" y="0%" width="100%" height="100%" id="7098d7e41a"><feColorMatrix values="0 0 0 0 1 0 0 0 0 1 0 0 0 0 1 0 0 0 1 0" color-interpolation-filters="sRGB"/></filter><mask id="662e15558e"><g filter="url(#7098d7e41a)"><rect x="-192" width="2304" fill="#000000" y="-107.999995" height="1295.999935" fill-opacity="0.4"/></g></mask><clipPath id="546d1c8f4b"><path d="M 62 172 L 1411 172 L 1411 958 L 62 958 Z M 62 172 " clip-rule="nonzero"/></clipPath><clipPath id="ebcdf7e374"><path d="M 1535.175781 1144.652344 L -9.15625 498.65625 L 198.648438 1.867188 L 1742.980469 647.867188 Z M 1535.175781 1144.652344 " clip-rule="nonzero"/></clipPath><clipPath id="5dcd8c37e5"><path d="M 1535.175781 1144.652344 L -9.15625 498.65625 L 198.648438 1.867188 L 1742.980469 647.867188 Z M 1535.175781 1144.652344 " clip-rule="nonzero"/></clipPath><clipPath id="dd9fe372db"><path d="M 576.511719 363.984375 C 652.007812 395.5625 766.570312 542.28125 829.847656 623.636719 C 843.550781 641.234375 855.363281 656.261719 864.191406 667.074219 C 915.769531 729.59375 964.421875 732.441406 1026.273438 736.355469 C 1082.332031 739.929688 1145.910156 743.976562 1228.644531 793.714844 C 1289.628906 830.203125 1296.152344 877.730469 1302.195312 923.574219 C 1306.972656 956.128906 1311.011719 986.894531 1334.03125 1013.433594 C 1395.050781 1083.164062 1450.765625 1063.453125 1504.691406 1044.472656 C 1531.527344 1034.929688 1556.929688 1025.976562 1583.035156 1027.402344 L 1583.050781 1029.488281 C 1557.453125 1028.273438 1532.050781 1037.226562 1505.570312 1046.621094 C 1451.035156 1065.640625 1394.351562 1085.542969 1332.53125 1014.882812 C 1309.011719 988.132812 1304.929688 956.757812 1300.257812 923.949219 C 1294.003906 878.613281 1287.523438 831.695312 1227.546875 795.628906 C 1145.316406 746.101562 1081.992188 742.160156 1026.183594 738.695312 C 966.3125 735.011719 914.925781 731.613281 862.695312 668.527344 C 853.761719 657.964844 842.054688 642.683594 828.351562 625.085938 C 760.53125 538.269531 634.5625 376.992188 561 361.351562 C 545.191406 358.003906 528.988281 354.191406 511.917969 350.3125 C 434.527344 332.480469 346.65625 312.039062 273.976562 327.625 C 266.480469 329.234375 259.234375 330.949219 251.738281 332.5625 C 188.386719 346.410156 123.25 360.992188 64.921875 336.59375 C 64.164062 336.277344 63.40625 335.960938 62.398438 335.539062 L 63.242188 333.519531 C 64 333.835938 64.757812 334.152344 65.515625 334.46875 C 123.335938 358.65625 188.117188 344.21875 250.960938 330.160156 C 258.460938 328.550781 265.703125 326.832031 273.203125 325.222656 C 346.492188 309.597656 434.363281 330.035156 512.109375 347.722656 C 529.179688 351.601562 545.386719 355.414062 561.191406 358.761719 C 566.199219 360.265625 571.210938 361.765625 576.511719 363.984375 Z M 603.777344 378.949219 C 595.339844 375.714844 586.648438 372.378906 577.707031 368.933594 C 487.011719 333.960938 384.242188 294.53125 283.328125 311.65625 C 267.070312 314.351562 250.03125 318.199219 233.710938 321.757812 C 177.246094 334.035156 118.742188 346.945312 67.484375 325.503906 C 67.230469 325.398438 66.980469 325.292969 66.726562 325.1875 L 65.882812 327.207031 C 66.132812 327.3125 66.386719 327.417969 66.640625 327.523438 C 118.652344 349.28125 177.160156 336.375 233.980469 323.945312 C 250.300781 320.390625 267.234375 316.792969 283.597656 313.847656 C 383.898438 296.765625 486.671875 336.195312 576.859375 370.953125 C 585.804688 374.398438 594.496094 377.734375 602.933594 380.96875 C 604.449219 381.601562 605.710938 382.128906 607.226562 382.765625 C 695.347656 419.625 842.199219 584.890625 898.34375 647.835938 L 898.890625 648.660156 C 950.6875 707.113281 1001.730469 716.300781 1060.582031 726.679688 C 1113.351562 735.996094 1172.707031 746.582031 1247.550781 793.910156 C 1302.011719 828.261719 1309.085938 873.054688 1316.078125 916.625 C 1321.066406 948.675781 1325.929688 978.894531 1348.757812 1004.464844 C 1408.3125 1070.613281 1463.902344 1049.070312 1517.808594 1028.007812 C 1543.382812 1017.9375 1567.777344 1008.558594 1591.609375 1009.035156 L 1591.589844 1006.949219 C 1567.148438 1006.515625 1543.007812 1016 1517.179688 1025.960938 C 1463.992188 1046.730469 1409.117188 1067.984375 1350.464844 1002.507812 C 1327.679688 977.546875 1323.066406 947.433594 1317.976562 915.636719 C 1311.089844 871.8125 1303.972656 826.414062 1248.503906 791.636719 C 1173.40625 744.203125 1113.4375 733.65625 1060.773438 724.089844 C 1002.175781 713.816406 951.636719 704.839844 900.242188 646.851562 L 899.695312 646.027344 C 843.546875 583.082031 696.550781 417.460938 607.921875 380.386719 C 606.660156 379.859375 605.144531 379.222656 603.777344 378.949219 Z M 293.050781 297.628906 C 271.046875 300.585938 248.59375 306.027344 226.714844 310.820312 C 173.199219 323.144531 118 335.953125 69.917969 316.136719 L 69.074219 318.160156 C 117.910156 338.289062 173.363281 325.589844 227.238281 313.117188 C 248.972656 307.964844 271.570312 302.882812 293.324219 299.816406 C 424.492188 282 540.074219 343.996094 642.046875 398.8125 L 645.222656 400.4375 C 733.542969 447.46875 878.285156 568.835938 935.449219 628.644531 C 986.808594 682.46875 1036.894531 697.484375 1094.621094 714.808594 C 1144.203125 729.617188 1200.308594 746.558594 1267.765625 791.6875 C 1316.605469 824.578125 1324.273438 867.242188 1331.859375 908.6875 C 1337.523438 939.835938 1342.703125 969.296875 1364.941406 993.433594 C 1422.667969 1056.148438 1479.78125 1031.679688 1530.445312 1009.855469 C 1554.863281 999.003906 1577.992188 989.097656 1600.058594 988.835938 L 1600.039062 986.75 C 1577.722656 986.90625 1554.234375 996.960938 1529.5625 1007.707031 C 1477.109375 1030.265625 1422.863281 1053.558594 1366.1875 991.875 C 1344.597656 968.308594 1339.3125 939.101562 1333.542969 908.207031 C 1326.066406 866.507812 1318.105469 823.125 1268.503906 789.917969 C 1200.796875 744.683594 1144.4375 727.636719 1094.855469 712.832031 C 1037.382812 695.613281 987.546875 680.699219 936.585938 627.34375 C 879.425781 567.53125 734.429688 446.0625 645.855469 398.925781 L 642.679688 397.296875 C 602.960938 375.9375 561.074219 353.371094 517.140625 334.992188 C 448.058594 305.800781 373.535156 286.792969 293.050781 297.628906 Z M 302.777344 283.597656 C 276.960938 286.445312 250.066406 293.292969 224.246094 299.699219 C 170.203125 313.289062 119.171875 326.058594 72.898438 307.59375 L 72.054688 309.613281 C 93.117188 318.128906 117.21875 320.792969 146.089844 317.738281 C 171.800781 315.144531 198.695312 308.296875 224.621094 301.636719 C 250.441406 295.230469 276.980469 288.53125 302.796875 285.683594 C 452.34375 269.320312 569.722656 339.785156 687.007812 419.699219 C 717.886719 440.921875 754.847656 463.207031 793.617188 486.839844 C 861.941406 528.472656 932.683594 571.417969 971.140625 608.566406 C 1021.414062 657.1875 1070.082031 678.4375 1126.578125 702.957031 C 1173.328125 723.109375 1226.542969 746.257812 1287.011719 789.648438 C 1330.339844 820.828125 1338.597656 861.367188 1346.777344 900.6875 C 1353.472656 930.78125 1359.328125 959.339844 1380.621094 982.191406 C 1436.375 1041.113281 1492.964844 1014.347656 1542.894531 990.734375 C 1566.195312 979.710938 1588.316406 969.386719 1608.359375 968.277344 L 1608.34375 966.191406 C 1587.792969 967.089844 1565.566406 977.667969 1542.011719 988.585938 C 1492.546875 1011.800781 1436.675781 1038.273438 1381.972656 980.382812 C 1361.078125 957.996094 1355.117188 929.691406 1349.03125 899.554688 C 1340.960938 859.980469 1332.40625 818.726562 1288.574219 787.335938 C 1227.851562 743.839844 1174.640625 720.691406 1127.632812 700.433594 C 1071.390625 676.015625 1022.867188 655.128906 972.847656 606.613281 C 934.394531 569.460938 863.398438 526.414062 794.820312 484.671875 C 756.050781 461.039062 719.089844 438.753906 688.210938 417.53125 C 630.980469 378.460938 573.765625 341.472656 512.660156 315.914062 C 448.3125 289.589844 379.867188 275.199219 302.777344 283.597656 Z M 312.753906 269.675781 C 283.488281 272.265625 253.367188 280.433594 224.21875 288.414062 C 171.332031 302.785156 121.351562 316.589844 76.597656 298.757812 L 75.75 300.777344 C 121.371094 318.671875 171.601562 304.972656 224.847656 290.457031 C 253.996094 282.476562 283.863281 274.203125 313.027344 271.863281 C 491.078125 256.152344 621.460938 350.152344 729.554688 439.273438 C 774.765625 476.582031 830.570312 499.925781 884.496094 522.78125 C 932.726562 542.953125 978.070312 562.21875 1007.949219 588.660156 C 1055.871094 631.550781 1104.636719 659.664062 1156.21875 689.546875 C 1203.570312 716.773438 1252.589844 744.988281 1307.625 787.890625 C 1345.292969 816.996094 1353.894531 855.304688 1362.515625 892.140625 C 1369.316406 921.984375 1375.992188 949.992188 1396.597656 971.664062 C 1450.269531 1027.046875 1506.441406 997.734375 1555.992188 972.183594 C 1578.03125 960.632812 1598.785156 950.03125 1616.957031 948.433594 L 1616.6875 946.246094 C 1598.261719 947.734375 1577.296875 958.84375 1555.007812 970.285156 C 1506.167969 995.546875 1450.566406 1024.207031 1398.199219 969.960938 C 1377.636719 948.902344 1371.210938 920.996094 1364.558594 891.511719 C 1355.894531 854.066406 1347.042969 815.652344 1308.976562 786.082031 C 1253.6875 743.074219 1204.667969 714.855469 1157.316406 687.632812 C 1105.878906 658.105469 1057.117188 629.996094 1009.195312 587.105469 C 979.167969 560.304688 933.464844 541.183594 885.34375 520.757812 C 831.5625 498.261719 775.863281 474.667969 731.050781 437.824219 C 670.632812 387.925781 603.121094 336.546875 524.339844 303.589844 C 461.722656 277.398438 391.90625 262.730469 312.753906 269.675781 Z M 322.734375 255.75 C 290.371094 257.9375 257.535156 267.640625 225.667969 277.152344 C 173.472656 292.703125 124.144531 307.078125 80.082031 290.425781 L 79.238281 292.445312 C 124.058594 309.414062 173.492188 294.785156 226.1875 279.449219 C 257.953125 270.1875 290.789062 260.484375 322.898438 258.191406 C 413.984375 251.792969 497.480469 269.214844 578.355469 311.351562 C 655.039062 351.441406 719.257812 408.5625 771.738281 458.996094 C 820.414062 505.761719 880.863281 517.996094 934.113281 528.996094 C 975.914062 537.582031 1015.589844 545.574219 1044.042969 569.046875 C 1083.390625 601.230469 1123.140625 630.316406 1165.207031 660.96875 C 1217.070312 698.683594 1270.492188 737.644531 1327.628906 786.167969 C 1359.636719 813.203125 1368.933594 849.136719 1377.644531 883.632812 C 1385.265625 912.929688 1392.40625 940.542969 1412.675781 960.886719 C 1464.375 1012.476562 1522.632812 979.589844 1569.304688 953.125 C 1589.871094 941.554688 1609.359375 930.421875 1625.40625 928.234375 L 1625.03125 926.296875 C 1608.625 928.632812 1589.136719 939.761719 1568.214844 951.480469 C 1519.75 978.679688 1464.820312 1009.996094 1414.027344 959.078125 C 1394.15625 939.195312 1387.015625 911.585938 1379.539062 882.648438 C 1370.429688 847.683594 1361.238281 811.5 1328.832031 784.003906 C 1271.699219 735.476562 1218.273438 696.515625 1166.410156 658.800781 C 1124.34375 628.152344 1084.488281 599.316406 1045.246094 566.878906 C 1016.539062 543.300781 976.613281 535.203125 934.304688 526.40625 C 881.308594 515.511719 821.109375 503.382812 772.941406 456.832031 C 720.207031 406.292969 656.09375 348.914062 579.15625 308.722656 C 566.050781 301.753906 552.878906 295.652344 539.75 290.160156 C 470.859375 261.9375 399.417969 250.445312 322.734375 255.75 Z M 332.457031 241.722656 C 297.613281 243.460938 261.953125 254.949219 227.722656 265.851562 C 175.71875 282.367188 126.832031 297.816406 83.167969 281.628906 L 82.429688 283.394531 C 126.597656 299.796875 176.09375 284.304688 228.207031 267.535156 C 262.433594 256.632812 297.988281 245.398438 332.582031 243.554688 C 555.917969 231.652344 695.738281 349.179688 813.628906 478.003906 C 863.703125 532.773438 923.203125 530.960938 975.484375 529.390625 C 1014.539062 528.222656 1051.257812 526.96875 1079.945312 548.464844 C 1165.105469 612.269531 1258.734375 699.792969 1347.085938 783.628906 C 1373.433594 808.59375 1383.027344 841.679688 1392.183594 873.695312 C 1400.417969 902.949219 1408.527344 930.375 1428.355469 949.644531 C 1478.480469 997.90625 1536.175781 962.113281 1582.679688 933.207031 C 1602.339844 920.960938 1619.535156 910.351562 1633.457031 907.570312 L 1633.082031 905.632812 C 1618.800781 908.5625 1601.605469 919.167969 1581.589844 931.5625 C 1535.652344 959.816406 1478.671875 995.316406 1429.597656 948.089844 C 1409.917969 929.175781 1402.316406 901.964844 1393.976562 872.960938 C 1384.671875 840.589844 1375.183594 807.246094 1348.4375 781.820312 C 1259.832031 697.878906 1166.453125 610.460938 1081.042969 546.550781 C 1051.957031 524.589844 1014.628906 525.886719 975.316406 526.949219 C 923.292969 528.625 864.402344 530.394531 814.980469 476.195312 C 742.265625 396.828125 661.503906 321.804688 557.726562 278.394531 C 493.125 251.964844 418.996094 236.976562 332.457031 241.722656 Z M 342.6875 227.902344 C 305.359375 229.199219 267.589844 242.179688 230.644531 254.613281 C 178.828125 272.097656 129.769531 288.664062 86.757812 273.042969 L 86.019531 274.8125 C 129.789062 290.746094 179.203125 274.035156 231.378906 256.402344 C 267.96875 244.117188 305.734375 231.136719 342.8125 229.734375 C 592.796875 220.082031 737.570312 352.734375 856.425781 497.6875 C 907.246094 559.886719 964.535156 543.503906 1015.085938 529.046875 C 1052.15625 518.445312 1087.183594 508.472656 1116.753906 528.554688 C 1180.53125 571.847656 1252.757812 653.089844 1316.492188 724.84375 C 1334.425781 745.101562 1351.410156 764.074219 1367.554688 781.507812 C 1388.199219 803.792969 1397.589844 833.828125 1406.789062 862.894531 C 1415.929688 892.824219 1425.046875 920.671875 1444.6875 938.972656 C 1493.34375 983.652344 1553.402344 942.914062 1597.277344 913.203125 C 1615.105469 901.082031 1630.46875 890.597656 1642.160156 887.476562 L 1641.53125 885.433594 C 1629.484375 888.699219 1613.867188 899.078125 1595.933594 911.457031 C 1550.054688 942.402344 1493.285156 980.957031 1445.929688 937.417969 C 1426.4375 919.472656 1417.824219 891.839844 1408.476562 862.414062 C 1399.273438 833.34375 1389.734375 802.953125 1368.691406 780.207031 C 1352.546875 762.769531 1335.667969 743.546875 1317.632812 723.542969 C 1253.644531 651.679688 1181.164062 570.332031 1117.390625 527.039062 C 1087.164062 506.386719 1051.421875 516.652344 1013.992188 527.402344 C 961.757812 542.339844 907.585938 557.65625 857.460938 496.636719 C 781.792969 404.460938 695.53125 317.050781 578.625 268.148438 C 511.566406 239.800781 434.339844 224.410156 342.6875 227.902344 Z M 352.414062 213.875 C 312.851562 214.828125 272.726562 229.195312 233.925781 243.226562 C 181.9375 261.828125 133.066406 279.359375 90.203125 264.101562 L 89.464844 265.867188 C 133.085938 281.445312 182.417969 263.511719 234.660156 245.015625 C 273.355469 231.238281 313.230469 216.765625 352.539062 215.707031 C 476.359375 212.613281 582.222656 239.691406 676.757812 298.8125 C 753.113281 346.777344 821.699219 414.03125 898.210938 516.945312 C 949.738281 585.96875 1001.992188 556.796875 1052.351562 528.613281 C 1088.046875 508.535156 1121.734375 489.699219 1152.703125 508.582031 C 1214.632812 546.355469 1288.097656 645.917969 1346.976562 725.730469 C 1361.5625 745.476562 1375.199219 763.941406 1387.304688 779.683594 C 1402.351562 799.03125 1411.242188 825.296875 1419.945312 850.597656 C 1430.746094 881.519531 1440.558594 910.542969 1460.765625 928.195312 C 1508.101562 969.652344 1568.375 924.847656 1612.550781 892.296875 C 1628.082031 880.699219 1641.402344 870.84375 1650.859375 867.382812 L 1650.125 865.589844 C 1640.3125 869.199219 1626.886719 879.308594 1611.101562 890.800781 C 1567.640625 923.058594 1508.039062 966.957031 1461.90625 926.890625 C 1442.347656 909.808594 1432.28125 880.679688 1421.882812 850.21875 C 1413.179688 824.921875 1404.039062 798.550781 1388.84375 778.84375 C 1376.738281 763.101562 1363.101562 744.636719 1348.515625 724.890625 C 1289.488281 644.71875 1216.023438 545.160156 1153.585938 507.175781 C 1121.863281 487.972656 1087.457031 507.101562 1051.152344 527.222656 C 1001.511719 555.113281 950.078125 583.738281 899.75 516.105469 C 822.730469 412.980469 754.253906 345.472656 677.640625 297.40625 C 652.527344 281.558594 626.460938 267.984375 599.441406 256.683594 C 524.953125 225.523438 443.285156 211.535156 352.414062 213.875 Z M 362.140625 199.84375 C 320.347656 200.460938 278.113281 216.316406 237.203125 231.839844 C 185.300781 251.664062 136.007812 270.207031 93.289062 255.304688 L 92.550781 257.070312 C 136.132812 272.039062 185.527344 253.242188 237.9375 233.632812 C 278.488281 218.253906 320.828125 202.144531 362.261719 201.675781 C 496.84375 199.820312 610.785156 230.277344 709.753906 295.113281 C 790.359375 347.816406 863.625 424.449219 940.503906 536.417969 C 957.796875 561.746094 975.628906 575.140625 995.3125 577.738281 C 1027.625 582.054688 1059.050781 555.152344 1089.300781 528.9375 C 1123.976562 499.238281 1156.542969 471.027344 1189.003906 488.464844 C 1255.191406 523.863281 1340.492188 666.054688 1391.515625 751.183594 C 1397.3125 760.726562 1402.710938 769.808594 1407.519531 777.460938 C 1417.035156 793.011719 1424.398438 813 1432.09375 834.316406 C 1443.839844 866.523438 1456.027344 899.808594 1476.949219 917.164062 C 1523.71875 955.714844 1586.953125 903.84375 1628.816406 869.730469 C 1641.375 859.558594 1652.191406 850.730469 1659.417969 846.929688 L 1658.429688 845.035156 C 1650.949219 848.730469 1640.03125 857.808594 1627.46875 867.980469 C 1586.074219 901.695312 1523.515625 952.664062 1477.941406 915.5 C 1457.417969 898.609375 1445.230469 865.328125 1433.632812 833.476562 C 1425.9375 812.160156 1418.574219 792.171875 1408.804688 776.511719 C 1404.101562 768.613281 1398.597656 759.78125 1392.800781 750.238281 C 1341.777344 665.109375 1256.078125 522.453125 1189.640625 486.949219 C 1188.230469 486.0625 1186.714844 485.429688 1185.199219 484.796875 C 1153.132812 471.382812 1121.238281 498.6875 1087.746094 527.695312 C 1057.707031 553.402344 1026.636719 580.160156 995.1875 575.90625 C 976.371094 573.375 958.785156 560.085938 941.789062 535.46875 C 864.761719 423.144531 791.242188 346.40625 710.386719 293.597656 C 681.757812 274.796875 651.863281 259.03125 620.554688 245.933594 C 543.898438 213.570312 458.230469 198.503906 362.140625 199.84375 Z M 1124.417969 529.386719 C 1096.03125 563.203125 1066.507812 598.320312 1035.941406 596.214844 C 1018.066406 594.96875 1001.347656 581.746094 984.480469 555.40625 C 906.246094 432.488281 829.644531 348.230469 743.886719 290.105469 C 639.769531 219.851562 518.210938 185.617188 372.011719 186.171875 C 328.09375 186.195312 283.898438 203.902344 241.132812 221.023438 C 188.808594 241.859375 139.597656 261.621094 96.667969 247.222656 L 96.183594 249.097656 C 139.617188 263.707031 189.4375 243.902344 241.867188 222.816406 C 284.632812 205.695312 328.722656 188.238281 372.136719 188.003906 C 517.722656 187.492188 639.136719 221.367188 742.894531 291.769531 C 828.503906 349.535156 904.855469 433.6875 982.835938 556.496094 C 1000 583.554688 1017.222656 596.988281 1035.707031 598.195312 C 1067.136719 600.363281 1097.125 564.847656 1125.972656 530.632812 C 1159.019531 491.347656 1190.253906 454.273438 1223.835938 468.324219 C 1224.339844 468.535156 1224.84375 468.746094 1225.351562 468.957031 C 1255.226562 482.640625 1295.140625 530.488281 1340.804688 607.144531 C 1375.820312 666 1409.621094 734.132812 1427.417969 775.992188 C 1431.34375 785.050781 1435.285156 796.195312 1439.523438 808.054688 C 1452.484375 843.734375 1468.757812 888.519531 1492.820312 906.890625 C 1539.738281 942.242188 1609.199219 879.03125 1646.890625 844.953125 C 1656.019531 836.609375 1663.1875 830.113281 1668.117188 826.835938 L 1667.027344 825.191406 C 1661.988281 828.722656 1654.820312 835.21875 1645.695312 843.5625 C 1608.824219 877.09375 1539.933594 939.652344 1494.273438 904.828125 C 1470.613281 886.921875 1454.484375 842.496094 1441.777344 806.917969 C 1437.539062 795.058594 1433.597656 783.917969 1429.417969 774.753906 C 1399.703125 705.359375 1298.363281 500.089844 1226.554688 466.789062 C 1226.046875 466.578125 1225.542969 466.367188 1225.039062 466.15625 C 1189.835938 451.726562 1156.429688 491.15625 1124.417969 529.386719 Z M 1262.140625 446.964844 C 1224.601562 432.449219 1191.832031 483.121094 1160.417969 531.984375 C 1133.429688 573.804688 1105.558594 617.03125 1075.832031 616.460938 C 1059.113281 615.996094 1043.113281 602.480469 1026.519531 574.769531 C 947.078125 441.261719 867.644531 349.589844 776.882812 286.40625 C 667.972656 210.585938 538.839844 173.183594 381.738281 172.144531 C 335.839844 171.933594 289.535156 191.132812 244.917969 209.851562 C 192.421875 231.800781 142.789062 252.574219 100.007812 238.535156 L 99.375 240.046875 C 142.914062 254.40625 192.902344 233.484375 245.757812 211.386719 C 290.269531 192.921875 336.320312 173.617188 381.859375 173.976562 C 538.351562 175.054688 667.234375 212.355469 775.996094 287.816406 C 866.503906 350.890625 945.6875 442.460938 1024.980469 575.609375 C 1041.867188 604.035156 1058.628906 617.871094 1075.953125 618.292969 C 1106.902344 618.777344 1133.785156 577.214844 1162.078125 532.976562 C 1193.179688 484.871094 1225.269531 435.101562 1261.402344 448.730469 C 1300.058594 463.417969 1347.859375 546.308594 1372.929688 594.179688 C 1411.378906 667.523438 1439.804688 741.417969 1447.128906 773.554688 C 1454.117188 804.367188 1478.484375 874.488281 1508.75 895.753906 C 1557.925781 929.972656 1638.382812 846.140625 1668.410156 814.792969 C 1671.613281 811.386719 1674.355469 808.378906 1676.316406 806.53125 L 1674.863281 805.03125 C 1672.800781 807.136719 1670.164062 809.890625 1666.957031 813.296875 C 1637.039062 844.394531 1557.613281 927.171875 1510.101562 893.945312 C 1482.695312 875.0625 1458.0625 811.953125 1449.421875 773.03125 C 1433.917969 705.132812 1331.683594 475.757812 1263.761719 447.34375 C 1263.152344 447.386719 1262.644531 447.175781 1262.140625 446.964844 Z M 1262.140625 446.964844 " clip-rule="nonzero"/></clipPath><linearGradient x1="68.671882" gradientTransform="matrix(-2.524987, -1.056208, 1.056208, -2.524987, 1521.089542, 1181.871812)" y1="117.318001" x2="634.067719" gradientUnits="userSpaceOnUse" y2="117.318001" id="26c94926a0"><stop stop-opacity="1" stop-color="rgb(1.472473%, 80.714417%, 52.108765%)" offset="0"/><stop stop-opacity="1" stop-color="rgb(1.519775%, 80.090332%, 51.725769%)" offset="0.00390625"/><stop stop-opacity="1" stop-color="rgb(1.568604%, 79.466248%, 51.344299%)" offset="0.0078125"/><stop stop-opacity="1" stop-color="rgb(1.615906%, 78.840637%, 50.96283%)" offset="0.0117187"/><stop stop-opacity="1" stop-color="rgb(1.664734%, 78.216553%, 50.58136%)" offset="0.015625"/><stop stop-opacity="1" stop-color="rgb(1.712036%, 77.590942%, 50.198364%)" offset="0.0195312"/><stop stop-opacity="1" stop-color="rgb(1.759338%, 76.966858%, 49.816895%)" offset="0.0234375"/><stop stop-opacity="1" stop-color="rgb(1.806641%, 76.341248%, 49.433899%)" offset="0.0273438"/><stop stop-opacity="1" stop-color="rgb(1.855469%, 75.717163%, 49.052429%)" offset="0.03125"/><stop stop-opacity="1" stop-color="rgb(1.902771%, 75.091553%, 48.670959%)" offset="0.0351562"/><stop stop-opacity="1" stop-color="rgb(1.950073%, 74.467468%, 48.28949%)" offset="0.0390625"/><stop stop-opacity="1" stop-color="rgb(1.997375%, 73.841858%, 47.906494%)" offset="0.0429688"/><stop stop-opacity="1" stop-color="rgb(2.046204%, 73.217773%, 47.525024%)" offset="0.046875"/><stop stop-opacity="1" stop-color="rgb(2.093506%, 72.592163%, 47.142029%)" offset="0.0507812"/><stop stop-opacity="1" stop-color="rgb(2.140808%, 71.968079%, 46.760559%)" offset="0.0546875"/><stop stop-opacity="1" stop-color="rgb(2.18811%, 71.342468%, 46.379089%)" offset="0.0585938"/><stop stop-opacity="1" stop-color="rgb(2.236938%, 70.718384%, 45.99762%)" offset="0.0625"/><stop stop-opacity="1" stop-color="rgb(2.284241%, 70.094299%, 45.614624%)" offset="0.0664062"/><stop stop-opacity="1" stop-color="rgb(2.333069%, 69.470215%, 45.233154%)" offset="0.0703125"/><stop stop-opacity="1" stop-color="rgb(2.380371%, 68.844604%, 44.850159%)" offset="0.0742188"/><stop stop-opacity="1" stop-color="rgb(2.427673%, 68.22052%, 44.468689%)" offset="0.078125"/><stop stop-opacity="1" stop-color="rgb(2.474976%, 67.59491%, 44.087219%)" offset="0.0820312"/><stop stop-opacity="1" stop-color="rgb(2.523804%, 66.970825%, 43.70575%)" offset="0.0859375"/><stop stop-opacity="1" stop-color="rgb(2.571106%, 66.345215%, 43.322754%)" offset="0.0898438"/><stop stop-opacity="1" stop-color="rgb(2.618408%, 65.72113%, 42.941284%)" offset="0.09375"/><stop stop-opacity="1" stop-color="rgb(2.66571%, 65.09552%, 42.558289%)" offset="0.0976562"/><stop stop-opacity="1" stop-color="rgb(2.714539%, 64.471436%, 42.176819%)" offset="0.101562"/><stop stop-opacity="1" stop-color="rgb(2.761841%, 63.845825%, 41.795349%)" offset="0.105469"/><stop stop-opacity="1" stop-color="rgb(2.810669%, 63.221741%, 41.413879%)" offset="0.109375"/><stop stop-opacity="1" stop-color="rgb(2.857971%, 62.59613%, 41.030884%)" offset="0.113281"/><stop stop-opacity="1" stop-color="rgb(2.905273%, 61.972046%, 40.649414%)" offset="0.117188"/><stop stop-opacity="1" stop-color="rgb(2.952576%, 61.346436%, 40.266418%)" offset="0.121094"/><stop stop-opacity="1" stop-color="rgb(3.001404%, 60.722351%, 39.884949%)" offset="0.125"/><stop stop-opacity="1" stop-color="rgb(3.048706%, 60.098267%, 39.503479%)" offset="0.128906"/><stop stop-opacity="1" stop-color="rgb(3.096008%, 59.474182%, 39.122009%)" offset="0.132813"/><stop stop-opacity="1" stop-color="rgb(3.143311%, 58.848572%, 38.739014%)" offset="0.136719"/><stop stop-opacity="1" stop-color="rgb(3.192139%, 58.224487%, 38.357544%)" offset="0.140625"/><stop stop-opacity="1" stop-color="rgb(3.239441%, 57.598877%, 37.974548%)" offset="0.144531"/><stop stop-opacity="1" stop-color="rgb(3.286743%, 56.974792%, 37.593079%)" offset="0.148438"/><stop stop-opacity="1" stop-color="rgb(3.334045%, 56.349182%, 37.211609%)" offset="0.152344"/><stop stop-opacity="1" stop-color="rgb(3.382874%, 55.725098%, 36.830139%)" offset="0.15625"/><stop stop-opacity="1" stop-color="rgb(3.430176%, 55.099487%, 36.447144%)" offset="0.160156"/><stop stop-opacity="1" stop-color="rgb(3.479004%, 54.475403%, 36.065674%)" offset="0.164063"/><stop stop-opacity="1" stop-color="rgb(3.526306%, 53.849792%, 35.682678%)" offset="0.167969"/><stop stop-opacity="1" stop-color="rgb(3.573608%, 53.225708%, 35.301208%)" offset="0.171875"/><stop stop-opacity="1" stop-color="rgb(3.620911%, 52.600098%, 34.919739%)" offset="0.175781"/><stop stop-opacity="1" stop-color="rgb(3.669739%, 51.976013%, 34.538269%)" offset="0.179688"/><stop stop-opacity="1" stop-color="rgb(3.717041%, 51.350403%, 34.155273%)" offset="0.183594"/><stop stop-opacity="1" stop-color="rgb(3.764343%, 50.726318%, 33.773804%)" offset="0.1875"/><stop stop-opacity="1" stop-color="rgb(3.811646%, 50.102234%, 33.390808%)" offset="0.191406"/><stop stop-opacity="1" stop-color="rgb(3.860474%, 49.478149%, 33.009338%)" offset="0.195313"/><stop stop-opacity="1" stop-color="rgb(3.907776%, 48.852539%, 32.627869%)" offset="0.199219"/><stop stop-opacity="1" stop-color="rgb(3.956604%, 48.228455%, 32.246399%)" offset="0.203125"/><stop stop-opacity="1" stop-color="rgb(4.003906%, 47.602844%, 31.863403%)" offset="0.207031"/><stop stop-opacity="1" stop-color="rgb(4.051208%, 46.97876%, 31.481934%)" offset="0.210938"/><stop stop-opacity="1" stop-color="rgb(4.098511%, 46.353149%, 31.098938%)" offset="0.214844"/><stop stop-opacity="1" stop-color="rgb(4.147339%, 45.729065%, 30.717468%)" offset="0.21875"/><stop stop-opacity="1" stop-color="rgb(4.194641%, 45.103455%, 30.335999%)" offset="0.222656"/><stop stop-opacity="1" stop-color="rgb(4.241943%, 44.47937%, 29.954529%)" offset="0.226563"/><stop stop-opacity="1" stop-color="rgb(4.289246%, 43.85376%, 29.571533%)" offset="0.230469"/><stop stop-opacity="1" stop-color="rgb(4.338074%, 43.229675%, 29.190063%)" offset="0.234375"/><stop stop-opacity="1" stop-color="rgb(4.385376%, 42.604065%, 28.807068%)" offset="0.238281"/><stop stop-opacity="1" stop-color="rgb(4.432678%, 41.97998%, 28.425598%)" offset="0.242188"/><stop stop-opacity="1" stop-color="rgb(4.47998%, 41.355896%, 28.044128%)" offset="0.246094"/><stop stop-opacity="1" stop-color="rgb(4.528809%, 40.731812%, 27.662659%)" offset="0.25"/><stop stop-opacity="1" stop-color="rgb(4.576111%, 40.106201%, 27.279663%)" offset="0.253906"/><stop stop-opacity="1" stop-color="rgb(4.624939%, 39.482117%, 26.898193%)" offset="0.257813"/><stop stop-opacity="1" stop-color="rgb(4.672241%, 38.856506%, 26.515198%)" offset="0.261719"/><stop stop-opacity="1" stop-color="rgb(4.719543%, 38.232422%, 26.133728%)" offset="0.265625"/><stop stop-opacity="1" stop-color="rgb(4.766846%, 37.606812%, 25.752258%)" offset="0.269531"/><stop stop-opacity="1" stop-color="rgb(4.815674%, 36.982727%, 25.370789%)" offset="0.273438"/><stop stop-opacity="1" stop-color="rgb(4.862976%, 36.357117%, 24.987793%)" offset="0.277344"/><stop stop-opacity="1" stop-color="rgb(4.910278%, 35.733032%, 24.606323%)" offset="0.28125"/><stop stop-opacity="1" stop-color="rgb(4.957581%, 35.107422%, 24.223328%)" offset="0.285156"/><stop stop-opacity="1" stop-color="rgb(5.006409%, 34.483337%, 23.841858%)" offset="0.289063"/><stop stop-opacity="1" stop-color="rgb(5.053711%, 33.857727%, 23.460388%)" offset="0.292969"/><stop stop-opacity="1" stop-color="rgb(5.102539%, 33.233643%, 23.078918%)" offset="0.296875"/><stop stop-opacity="1" stop-color="rgb(5.149841%, 32.608032%, 22.695923%)" offset="0.300781"/><stop stop-opacity="1" stop-color="rgb(5.197144%, 31.983948%, 22.314453%)" offset="0.304688"/><stop stop-opacity="1" stop-color="rgb(5.244446%, 31.359863%, 21.931458%)" offset="0.308594"/><stop stop-opacity="1" stop-color="rgb(5.293274%, 30.735779%, 21.549988%)" offset="0.3125"/><stop stop-opacity="1" stop-color="rgb(5.340576%, 30.110168%, 21.168518%)" offset="0.316406"/><stop stop-opacity="1" stop-color="rgb(5.387878%, 29.486084%, 20.787048%)" offset="0.320313"/><stop stop-opacity="1" stop-color="rgb(5.435181%, 28.860474%, 20.404053%)" offset="0.324219"/><stop stop-opacity="1" stop-color="rgb(5.484009%, 28.236389%, 20.022583%)" offset="0.328125"/><stop stop-opacity="1" stop-color="rgb(5.531311%, 27.610779%, 19.639587%)" offset="0.332031"/><stop stop-opacity="1" stop-color="rgb(5.578613%, 26.986694%, 19.258118%)" offset="0.335938"/><stop stop-opacity="1" stop-color="rgb(5.625916%, 26.361084%, 18.876648%)" offset="0.339844"/><stop stop-opacity="1" stop-color="rgb(5.674744%, 25.737%, 18.495178%)" offset="0.34375"/><stop stop-opacity="1" stop-color="rgb(5.722046%, 25.111389%, 18.112183%)" offset="0.347656"/><stop stop-opacity="1" stop-color="rgb(5.770874%, 24.487305%, 17.730713%)" offset="0.351563"/><stop stop-opacity="1" stop-color="rgb(5.818176%, 23.861694%, 17.347717%)" offset="0.355469"/><stop stop-opacity="1" stop-color="rgb(5.865479%, 23.23761%, 16.966248%)" offset="0.359375"/><stop stop-opacity="1" stop-color="rgb(5.912781%, 22.612%, 16.584778%)" offset="0.363281"/><stop stop-opacity="1" stop-color="rgb(5.961609%, 21.987915%, 16.203308%)" offset="0.367188"/><stop stop-opacity="1" stop-color="rgb(6.008911%, 21.363831%, 15.820312%)" offset="0.371094"/><stop stop-opacity="1" stop-color="rgb(6.056213%, 20.739746%, 15.438843%)" offset="0.375"/><stop stop-opacity="1" stop-color="rgb(6.103516%, 20.114136%, 15.055847%)" offset="0.378906"/><stop stop-opacity="1" stop-color="rgb(6.152344%, 19.490051%, 14.674377%)" offset="0.382813"/><stop stop-opacity="1" stop-color="rgb(6.199646%, 18.864441%, 14.292908%)" offset="0.386719"/><stop stop-opacity="1" stop-color="rgb(6.248474%, 18.240356%, 13.911438%)" offset="0.390625"/><stop stop-opacity="1" stop-color="rgb(6.295776%, 17.614746%, 13.528442%)" offset="0.394531"/><stop stop-opacity="1" stop-color="rgb(6.343079%, 16.990662%, 13.146973%)" offset="0.398438"/><stop stop-opacity="1" stop-color="rgb(6.390381%, 16.365051%, 12.763977%)" offset="0.402344"/><stop stop-opacity="1" stop-color="rgb(6.439209%, 15.740967%, 12.382507%)" offset="0.40625"/><stop stop-opacity="1" stop-color="rgb(6.486511%, 15.115356%, 12.001038%)" offset="0.410156"/><stop stop-opacity="1" stop-color="rgb(6.533813%, 14.491272%, 11.619568%)" offset="0.414063"/><stop stop-opacity="1" stop-color="rgb(6.581116%, 13.865662%, 11.236572%)" offset="0.417969"/><stop stop-opacity="1" stop-color="rgb(6.629944%, 13.241577%, 10.855103%)" offset="0.421875"/><stop stop-opacity="1" stop-color="rgb(6.677246%, 12.615967%, 10.472107%)" offset="0.425781"/><stop stop-opacity="1" stop-color="rgb(6.724548%, 11.991882%, 10.090637%)" offset="0.429688"/><stop stop-opacity="1" stop-color="rgb(6.771851%, 11.367798%, 9.709167%)" offset="0.433594"/><stop stop-opacity="1" stop-color="rgb(6.820679%, 10.743713%, 9.327698%)" offset="0.4375"/><stop stop-opacity="1" stop-color="rgb(6.867981%, 10.118103%, 8.944702%)" offset="0.441406"/><stop stop-opacity="1" stop-color="rgb(6.916809%, 9.494019%, 8.563232%)" offset="0.445313"/><stop stop-opacity="1" stop-color="rgb(6.964111%, 8.868408%, 8.180237%)" offset="0.449219"/><stop stop-opacity="1" stop-color="rgb(7.011414%, 8.244324%, 7.798767%)" offset="0.453125"/><stop stop-opacity="1" stop-color="rgb(7.055664%, 7.672119%, 7.449341%)" offset="0.457031"/><stop stop-opacity="1" stop-color="rgb(7.099915%, 7.099915%, 7.099915%)" offset="0.460938"/><stop stop-opacity="1" stop-color="rgb(7.099915%, 7.099915%, 7.099915%)" offset="0.46875"/><stop stop-opacity="1" stop-color="rgb(7.099915%, 7.099915%, 7.099915%)" offset="0.5"/><stop stop-opacity="1" stop-color="rgb(7.099915%, 7.099915%, 7.099915%)" offset="1"/></linearGradient><clipPath id="4b8a8d1244"><rect x="0" width="1411" y="0" height="958"/></clipPath><mask id="de8c5b1d3d"><g filter="url(#7098d7e41a)"><rect x="-192" width="2304" fill="#000000" y="-107.999995" height="1295.999935" fill-opacity="0.4"/></g></mask><clipPath id="3d29b33a6f"><path d="M 0 0 L 1405 0 L 1405 753 L 0 753 Z M 0 0 " clip-rule="nonzero"/></clipPath><clipPath id="1db24ac9da"><path d="M -161.832031 -66.976562 L 1454.132812 369.980469 L 1313.570312 889.8125 L -302.394531 452.855469 Z M -161.832031 -66.976562 " clip-rule="nonzero"/></clipPath><clipPath id="f53453f079"><path d="M -161.832031 -66.976562 L 1454.132812 369.980469 L 1313.570312 889.8125 L -302.394531 452.855469 Z M -161.832031 -66.976562 " clip-rule="nonzero"/></clipPath><clipPath id="dba3c872c2"><path d="M 891.304688 580.621094 C 812.304688 559.261719 679.417969 428.914062 605.972656 356.601562 C 590.074219 340.960938 576.386719 327.617188 566.210938 318.0625 C 506.847656 262.882812 458.242188 266.46875 396.414062 270.730469 C 340.371094 274.574219 276.816406 278.9375 188.25 240.527344 C 122.992188 212.390625 110.265625 166.136719 98.238281 121.492188 C 89.214844 89.847656 81.15625 59.882812 54.84375 36.605469 C -14.832031 -24.480469 -67.464844 2.398438 -118.417969 28.316406 C -143.761719 41.308594 -167.765625 53.53125 -193.832031 55.558594 L -194.125 53.492188 C -168.585938 51.324219 -144.585938 39.101562 -119.574219 26.300781 C -68.019531 0.265625 -14.453125 -26.929688 56.136719 34.972656 C 82.976562 58.390625 91.15625 88.953125 100.109375 120.863281 C 112.277344 164.980469 124.882812 210.636719 189.085938 238.488281 C 277.125 276.753906 340.414062 272.316406 396.195312 268.40625 C 456.03125 264.167969 507.417969 260.769531 567.503906 316.425781 C 577.75 325.71875 591.367188 339.324219 607.265625 354.964844 C 685.929688 432.089844 832.046875 575.375 907.027344 581.1875 C 923.136719 582.425781 939.703125 584.070312 957.136719 585.664062 C 1036.203125 593.152344 1126 601.839844 1195.992188 576.816406 C 1203.210938 574.234375 1210.167969 571.578125 1217.386719 568.992188 C 1278.359375 546.921875 1341.011719 523.882812 1402.042969 540.386719 C 1402.835938 540.601562 1403.628906 540.816406 1404.6875 541.101562 L 1404.113281 543.214844 C 1403.324219 543 1402.53125 542.789062 1401.738281 542.574219 C 1341.234375 526.210938 1278.917969 549.054688 1218.472656 571.273438 C 1211.253906 573.855469 1204.296875 576.511719 1197.078125 579.097656 C 1126.484375 604.238281 1036.6875 595.550781 957.285156 588.257812 C 939.855469 586.664062 923.289062 585.019531 907.175781 583.78125 C 902.015625 582.953125 896.851562 582.121094 891.304688 580.621094 Z M 862.304688 569.378906 C 871.09375 571.472656 880.148438 573.636719 889.46875 575.875 C 983.976562 598.59375 1091.046875 624.144531 1188.828125 593.875 C 1204.589844 589.066406 1220.96875 583.003906 1236.679688 577.328125 C 1291.035156 557.71875 1347.328125 537.21875 1400.964844 551.71875 C 1401.230469 551.792969 1401.492188 551.863281 1401.757812 551.933594 L 1402.328125 549.820312 C 1402.066406 549.75 1401.800781 549.679688 1401.535156 549.605469 C 1347.109375 534.890625 1290.8125 555.390625 1236.125 575.195312 C 1220.414062 580.871094 1204.101562 586.667969 1188.269531 591.742188 C 1091.089844 621.886719 984.019531 596.335938 890.039062 573.757812 C 880.722656 571.523438 871.667969 569.359375 862.875 567.265625 C 861.292969 566.835938 859.96875 566.480469 858.386719 566.050781 C 766.175781 541.117188 598.835938 396.632812 534.886719 341.632812 L 534.238281 340.890625 C 475.195312 289.765625 423.386719 287.382812 363.679688 284.847656 C 310.144531 282.5625 249.910156 279.882812 169.484375 242.824219 C 110.972656 215.945312 98.058594 172.476562 85.390625 130.207031 C 76.222656 99.09375 67.421875 69.777344 41.425781 47.4375 C -26.324219 -10.292969 -78.589844 18.386719 -129.253906 46.367188 C -153.277344 59.71875 -176.222656 72.226562 -199.910156 74.894531 L -199.617188 76.957031 C -175.332031 74.167969 -152.648438 61.589844 -128.359375 48.308594 C -78.371094 20.714844 -26.773438 -7.578125 39.988281 49.601562 C 65.867188 71.34375 74.402344 100.585938 83.640625 131.4375 C 96.238281 173.96875 109.273438 218.039062 168.839844 245.203125 C 249.53125 282.332031 310.363281 284.890625 363.828125 287.4375 C 423.269531 289.902344 474.550781 292.144531 533.136719 342.859375 L 533.785156 343.601562 C 597.734375 398.601562 765.269531 543.421875 858.007812 568.5 C 859.328125 568.855469 860.914062 569.285156 862.304688 569.378906 Z M 1181.035156 609.066406 C 1202.457031 603.234375 1223.996094 594.878906 1245.054688 587.25 C 1296.480469 567.980469 1349.511719 548.015625 1399.785156 561.324219 L 1400.355469 559.210938 C 1349.292969 545.6875 1295.996094 565.582031 1244.234375 585.042969 C 1223.367188 593.011719 1201.636719 601.027344 1180.476562 606.929688 C 1052.796875 641.871094 930.054688 595.636719 821.753906 554.726562 L 818.390625 553.535156 C 724.644531 518.546875 565.175781 417.300781 500.636719 365.542969 C 442.632812 318.953125 391.003906 310.664062 331.5 301.09375 C 280.398438 292.949219 222.550781 283.542969 149.738281 247.695312 C 96.988281 221.523438 83.769531 180.238281 70.792969 140.152344 C 61.078125 110.023438 52.0625 81.503906 26.835938 60.503906 C -38.648438 5.9375 -92.039062 37.71875 -139.390625 66.023438 C -162.164062 79.996094 -183.789062 92.863281 -205.625 96.03125 L -205.332031 98.09375 C -183.230469 95 -161.269531 81.941406 -138.234375 68.039062 C -89.207031 38.765625 -38.5 8.53125 25.804688 62.210938 C 50.3125 82.730469 59.398438 110.988281 69.183594 140.855469 C 82.089844 181.203125 95.695312 223.15625 149.238281 249.542969 C 222.316406 285.464844 280.425781 294.941406 331.527344 303.085938 C 390.769531 312.585938 442.132812 320.804688 499.679688 366.984375 C 564.21875 418.746094 723.953125 520.058594 817.960938 555.121094 L 821.324219 556.3125 C 863.511719 572.257812 908.003906 589.109375 953.976562 601.539062 C 1026.300781 621.378906 1102.679688 630.40625 1181.035156 609.066406 Z M 1173.242188 624.253906 C 1198.457031 618.027344 1224.214844 607.699219 1248.96875 597.949219 C 1300.75 577.359375 1349.65625 557.976562 1397.957031 570.1875 L 1398.527344 568.074219 C 1376.527344 562.40625 1352.28125 562.941406 1324.066406 569.769531 C 1298.921875 575.730469 1273.164062 586.058594 1248.339844 596.078125 C 1223.589844 605.828125 1198.164062 615.964844 1172.949219 622.1875 C 1026.859375 658.105469 901.21875 603.71875 774.429688 539.945312 C 741.027344 522.976562 701.453125 505.753906 659.910156 487.433594 C 586.695312 455.160156 510.910156 421.910156 467.898438 390.148438 C 411.660156 348.570312 360.617188 333.917969 301.382812 317.050781 C 252.382812 303.234375 196.585938 287.296875 130.925781 252.246094 C 83.871094 227.046875 70.34375 187.949219 57.058594 150.050781 C 46.457031 121.097656 36.890625 93.5625 12.773438 73.714844 C -50.257812 22.648438 -102.824219 56.632812 -149.210938 86.617188 C -170.855469 100.613281 -191.425781 113.765625 -211.148438 117.503906 L -210.855469 119.566406 C -190.605469 115.972656 -169.964844 102.554688 -148.054688 88.632812 C -102.078125 59.101562 -50.179688 25.503906 11.671875 75.683594 C 35.335938 95.125 44.972656 122.398438 54.972656 151.46875 C 68.1875 189.632812 82.097656 229.40625 129.683594 254.746094 C 195.605469 289.867188 251.40625 305.804688 300.667969 319.695312 C 359.636719 336.488281 410.488281 350.808594 466.460938 392.308594 C 509.476562 424.070312 585.523438 457.394531 659 489.738281 C 700.546875 508.058594 740.121094 525.28125 773.523438 542.253906 C 835.402344 573.445312 896.992188 602.574219 960.929688 619.863281 C 1028.183594 637.480469 1097.929688 642.730469 1173.242188 624.253906 Z M 1165.183594 639.371094 C 1193.855469 632.945312 1222.636719 620.882812 1250.480469 609.128906 C 1301.015625 587.921875 1348.742188 567.652344 1395.457031 579.433594 L 1396.027344 577.320312 C 1348.449219 565.589844 1300.457031 585.785156 1249.589844 607.1875 C 1221.746094 618.9375 1193.230469 631.074219 1164.628906 637.234375 C 990.195312 676.261719 848.570312 600.253906 729.679688 526.144531 C 679.945312 495.117188 621.554688 479.328125 565.085938 463.777344 C 514.621094 450.128906 467.132812 437.007812 434.03125 414.730469 C 380.878906 378.523438 328.835938 357.082031 273.765625 334.25 C 223.238281 313.5 170.933594 291.984375 110.726562 256.707031 C 69.550781 232.816406 55.980469 195.972656 42.582031 160.59375 C 31.910156 131.910156 21.601562 105.019531 -1.675781 86.25 C -62.175781 38.421875 -113.996094 74.875 -159.753906 106.734375 C -180.078125 121.085938 -199.253906 134.328125 -217.058594 138.304688 L -216.5 140.441406 C -198.433594 136.535156 -179.113281 122.761719 -158.523438 108.484375 C -113.441406 77.011719 -62.097656 41.277344 -3.039062 88.152344 C 20.117188 106.320312 30.160156 133.136719 40.640625 161.488281 C 54.160156 197.464844 67.996094 234.378906 109.625 258.679688 C 170.097656 294.027344 222.402344 315.542969 272.929688 336.292969 C 327.808594 358.789062 379.847656 380.230469 433.003906 416.4375 C 466.296875 439.046875 514.121094 451.980469 564.515625 465.890625 C 620.789062 481.105469 679.109375 497.160156 728.386719 527.78125 C 794.851562 569.285156 868.542969 611.324219 950.976562 633.617188 C 1016.5 651.335938 1087.636719 656.675781 1165.183594 639.371094 Z M 1157.128906 654.484375 C 1188.921875 648.054688 1220.191406 634.113281 1250.53125 620.484375 C 1300.21875 598.195312 1347.226562 577.449219 1393.097656 588.152344 L 1393.667969 586.039062 C 1347.003906 575.121094 1299.925781 596.132812 1249.707031 618.277344 C 1219.441406 631.640625 1188.171875 645.585938 1156.640625 652.085938 C 1067.191406 670.429688 982.128906 664.15625 896.410156 633.039062 C 815.113281 603.398438 743.929688 555.230469 685.261719 512.148438 C 630.855469 472.203125 569.320312 468.039062 515.082031 464.148438 C 472.515625 461.144531 432.132812 458.445312 400.835938 438.925781 C 357.59375 412.207031 314.359375 388.605469 268.621094 363.765625 C 212.238281 333.207031 154.152344 301.625 91.121094 261.046875 C 55.832031 238.464844 41.882812 204.070312 28.707031 171.019531 C 17.289062 142.980469 6.574219 116.550781 -16.195312 99.054688 C -74.238281 54.722656 -127.660156 95 -170.4375 127.378906 C -189.300781 141.558594 -207.15625 155.160156 -222.773438 159.441406 L -222.144531 161.3125 C -206.191406 156.835938 -188.335938 143.234375 -169.140625 128.863281 C -124.683594 95.519531 -74.355469 57.242188 -17.296875 101.023438 C 5.019531 118.117188 15.734375 144.546875 26.957031 172.246094 C 40.589844 205.707031 54.46875 240.363281 90.214844 263.355469 C 153.242188 303.929688 211.332031 335.515625 267.714844 366.070312 C 313.449219 390.914062 356.757812 414.25 399.929688 441.234375 C 431.492188 460.824219 472.136719 463.59375 515.234375 466.742188 C 569.203125 470.558594 630.476562 474.652344 684.355469 514.457031 C 743.285156 557.609375 814.398438 606.042969 895.960938 635.75 C 909.871094 640.929688 923.730469 645.246094 937.46875 648.960938 C 1009.476562 667.863281 1081.808594 669.84375 1157.128906 654.484375 Z M 1149.335938 669.675781 C 1183.648438 663.359375 1217.484375 647.273438 1249.980469 631.960938 C 1299.355469 608.738281 1345.78125 586.984375 1391.199219 597.277344 L 1391.699219 595.429688 C 1345.753906 584.992188 1298.726562 606.867188 1249.277344 630.355469 C 1216.785156 645.667969 1183.019531 661.488281 1148.972656 667.875 C 929.148438 709.085938 775.066406 611 641.234375 498.828125 C 584.382812 451.132812 525.636719 460.765625 474.023438 469.207031 C 435.460938 475.507812 399.226562 481.585938 367.957031 464.058594 C 275.136719 412.023438 170.792969 337.59375 72.167969 266.128906 C 42.765625 244.851562 28.894531 213.316406 15.601562 182.785156 C 3.585938 154.871094 -8.066406 128.753906 -30.257812 112.261719 C -86.304688 71.023438 -138.78125 114.105469 -181.074219 148.886719 C -198.949219 163.613281 -214.597656 176.394531 -228.03125 180.984375 L -227.402344 182.855469 C -213.632812 178.074219 -197.988281 165.292969 -179.773438 150.371094 C -137.960938 116.3125 -86.152344 73.617188 -31.285156 113.96875 C -9.285156 130.125 1.835938 156.097656 13.921875 183.75 C 27.40625 214.617188 41.207031 246.417969 71.070312 268.101562 C 169.957031 339.636719 274.035156 413.996094 367.121094 466.101562 C 398.847656 484.035156 435.679688 477.835938 474.507812 471.605469 C 525.859375 463.09375 584.003906 453.582031 640.132812 500.796875 C 722.667969 569.898438 812.609375 633.628906 921.199219 662.992188 C 988.714844 680.679688 1064.175781 685.773438 1149.335938 669.675781 Z M 1141.015625 684.71875 C 1177.847656 678.519531 1213.578125 660.675781 1248.5625 643.484375 C 1297.625 619.328125 1344.074219 596.445312 1388.769531 606.261719 L 1389.269531 604.414062 C 1343.78125 594.382812 1296.996094 617.457031 1247.597656 641.808594 C 1212.949219 658.804688 1177.21875 676.648438 1140.648438 682.921875 C 894.113281 725.414062 733.132812 612.988281 596.21875 484.953125 C 537.644531 429.988281 483.015625 453.777344 434.808594 474.765625 C 399.460938 490.15625 366.050781 504.65625 334.089844 488.640625 C 265.167969 454.128906 182.871094 383.105469 110.238281 320.371094 C 89.796875 302.652344 70.460938 286.082031 52.160156 270.925781 C 28.761719 251.554688 15.496094 223.019531 2.546875 195.417969 C -10.457031 166.953125 -23.164062 140.550781 -45.042969 124.992188 C -99.160156 87.109375 -153.328125 135.40625 -192.910156 170.636719 C -208.984375 185 -222.835938 197.417969 -234.011719 202.050781 L -233.117188 203.992188 C -221.605469 199.167969 -207.492188 186.824219 -191.347656 172.191406 C -149.945312 135.472656 -98.746094 89.773438 -46.070312 126.699219 C -24.382812 141.921875 -12.203125 168.179688 0.9375 196.117188 C 13.890625 223.71875 27.347656 252.59375 51.203125 272.367188 C 69.503906 287.523438 88.765625 304.359375 109.28125 321.8125 C 182.175781 384.621094 264.738281 455.710938 333.660156 490.226562 C 366.34375 506.71875 400.421875 491.835938 436.109375 476.25 C 485.921875 454.5625 537.601562 432.246094 595.332031 486.132812 C 682.480469 567.535156 779.503906 642.820312 901.832031 675.898438 C 972.039062 695.167969 1050.621094 700.253906 1141.015625 684.71875 Z M 1133.222656 699.90625 C 1172.3125 693.75 1210.199219 674.222656 1246.8125 655.203125 C 1295.894531 629.917969 1342.03125 606.101562 1386.53125 615.582031 L 1387.03125 613.730469 C 1341.738281 604.035156 1295.195312 628.308594 1245.847656 653.527344 C 1209.304688 672.28125 1171.683594 691.878906 1132.855469 698.109375 C 1010.519531 717.480469 902.015625 704.585938 800.515625 658.425781 C 718.507812 620.941406 641.660156 563.304688 552.257812 471.367188 C 492.089844 409.730469 444.132812 445.53125 397.925781 480.101562 C 365.1875 504.707031 334.269531 527.816406 301.089844 513.175781 C 234.722656 483.886719 148.785156 394.871094 79.902344 323.507812 C 62.84375 305.855469 46.894531 289.347656 32.820312 275.335938 C 15.355469 258.140625 3.082031 233.273438 -8.875 209.339844 C -23.652344 180.109375 -37.203125 152.628906 -59.5625 137.796875 C -111.945312 102.933594 -165.792969 155.285156 -205.296875 193.371094 C -219.164062 206.914062 -231.070312 218.441406 -239.992188 223.117188 L -239.027344 224.792969 C -229.769531 219.925781 -217.792969 208.136719 -203.660156 194.664062 C -164.828125 156.964844 -111.53125 105.597656 -60.519531 139.238281 C -38.882812 153.59375 -25.066406 181.144531 -10.746094 209.96875 C 1.210938 233.902344 13.75 258.839844 31.40625 276.371094 C 45.480469 290.382812 61.429688 306.890625 78.488281 324.542969 C 147.5625 396.242188 233.5 485.257812 300.394531 514.6875 C 334.371094 529.546875 365.957031 506.046875 399.296875 481.324219 C 444.832031 447.136719 492.046875 411.988281 550.84375 472.402344 C 640.773438 564.480469 717.550781 622.382812 799.824219 659.941406 C 826.808594 672.339844 854.4375 682.363281 882.707031 690.007812 C 960.648438 711.082031 1043.449219 714.191406 1133.222656 699.90625 Z M 1125.429688 715.097656 C 1166.777344 708.980469 1206.554688 687.699219 1245.0625 666.921875 C 1293.902344 640.433594 1340.320312 615.5625 1384.632812 624.707031 L 1385.132812 622.859375 C 1339.957031 613.761719 1293.464844 638.898438 1244.097656 665.246094 C 1205.925781 685.828125 1166.074219 707.375 1125.0625 713.296875 C 991.902344 732.859375 874.941406 717.679688 768.296875 666.441406 C 681.449219 624.8125 598.730469 558.5 507.773438 457.636719 C 487.292969 434.800781 467.851562 423.875 447.996094 423.894531 C 415.398438 423.867188 387.789062 454.679688 361.253906 484.644531 C 330.792969 518.65625 302.226562 550.90625 267.75 537.898438 C 197.480469 511.527344 94.191406 381.808594 32.402344 304.144531 C 25.398438 295.445312 18.851562 287.152344 13.074219 280.203125 C 1.59375 266.042969 -8.335938 247.195312 -18.773438 227.078125 C -34.660156 196.699219 -51.125 165.3125 -74.152344 150.863281 C -125.59375 118.808594 -181.441406 178.554688 -218.445312 217.882812 C -229.558594 229.625 -239.113281 239.796875 -245.777344 244.515625 L -244.550781 246.265625 C -237.621094 241.621094 -227.996094 231.179688 -216.882812 219.441406 C -180.285156 180.570312 -124.984375 121.804688 -74.914062 152.640625 C -52.34375 166.683594 -35.882812 198.070312 -20.1875 228.113281 C -9.75 248.230469 0.179688 267.078125 11.925781 281.3125 C 17.628906 288.523438 24.25 296.550781 31.253906 305.25 C 93.042969 382.917969 196.785156 513.039062 267.320312 539.484375 C 268.835938 540.179688 270.421875 540.605469 272.007812 541.035156 C 305.5625 550.109375 333.578125 518.839844 362.960938 485.675781 C 389.351562 456.234375 416.628906 425.617188 448.363281 425.691406 C 467.351562 425.722656 486.53125 436.582031 506.621094 458.742188 C 597.773438 559.941406 680.757812 626.328125 767.867188 668.027344 C 798.722656 682.890625 830.433594 694.585938 863.195312 703.445312 C 943.445312 725.429688 1030.351562 729.082031 1125.429688 715.097656 Z M 326.386719 488.828125 C 350.070312 451.566406 374.710938 412.867188 405.289062 410.925781 C 423.171875 409.808594 441.484375 420.714844 461.679688 444.605469 C 555.417969 556.144531 642.453125 629.578125 735.117188 675.902344 C 847.582031 731.828125 972.589844 749.753906 1117.441406 729.949219 C 1160.976562 724.140625 1202.453125 700.765625 1242.589844 678.164062 C 1291.714844 650.617188 1337.894531 624.542969 1382.34375 633.160156 L 1382.582031 631.242188 C 1337.601562 622.480469 1290.824219 648.675781 1241.625 676.484375 C 1201.488281 699.085938 1160.082031 722.199219 1117.078125 728.148438 C 972.828125 747.832031 848.011719 730.242188 735.878906 674.121094 C 643.410156 628.136719 556.640625 554.773438 463.164062 443.304688 C 442.585938 418.742188 423.742188 407.695312 405.261719 408.933594 C 373.816406 410.921875 348.769531 450.082031 324.679688 487.796875 C 297.09375 531.089844 271.015625 571.957031 235.878906 562.453125 C 235.347656 562.3125 234.820312 562.167969 234.292969 562.023438 C 202.871094 552.394531 157.003906 510.222656 101.640625 440.246094 C 59.179688 386.519531 16.695312 323.429688 -6.457031 284.28125 C -11.539062 275.816406 -16.914062 265.289062 -22.675781 254.09375 C -40.226562 220.425781 -62.257812 178.179688 -88.527344 163.136719 C -139.699219 134.273438 -200.226562 206.082031 -233.101562 244.828125 C -241.050781 254.300781 -247.300781 261.683594 -251.757812 265.582031 L -250.457031 267.070312 C -245.929688 262.90625 -239.679688 255.523438 -231.730469 246.046875 C -199.597656 207.953125 -139.546875 136.863281 -89.699219 165.371094 C -63.886719 180.007812 -42.046875 221.917969 -24.761719 255.511719 C -19 266.710938 -13.625 277.238281 -8.277344 285.773438 C 30.320312 350.644531 157.8125 540.777344 233.386719 564.332031 C 233.914062 564.472656 234.441406 564.617188 234.96875 564.761719 C 271.765625 574.425781 299.6875 530.941406 326.386719 488.828125 Z M 200.71875 588.671875 C 239.84375 598.117188 265.652344 543.570312 290.359375 490.992188 C 311.601562 445.984375 333.535156 399.464844 363.078125 396.109375 C 379.710938 394.371094 397.355469 405.664062 417.453125 430.945312 C 513.789062 552.824219 604.605469 633.238281 702.894531 683.917969 C 820.84375 744.730469 953.78125 764.796875 1109.648438 745.136719 C 1155.175781 739.300781 1198.546875 714.167969 1240.308594 689.738281 C 1289.457031 661.066406 1335.921875 633.933594 1380.179688 642.214844 L 1380.609375 640.632812 C 1335.558594 632.136719 1288.757812 659.457031 1239.273438 688.324219 C 1197.582031 712.492188 1154.476562 737.695312 1109.285156 743.335938 C 954.015625 762.878906 821.34375 742.878906 703.589844 682.402344 C 605.5625 631.796875 515.007812 551.453125 418.867188 429.910156 C 398.382812 403.957031 379.949219 392.449219 362.714844 394.3125 C 331.972656 397.90625 310.800781 442.648438 288.582031 490.226562 C 264.085938 542.011719 238.828125 595.574219 201.21875 586.820312 C 160.964844 577.355469 102.660156 501.480469 71.503906 457.332031 C 23.730469 389.691406 -14.179688 320.183594 -25.671875 289.289062 C -36.660156 259.667969 -70.050781 193.367188 -102.855469 176.273438 C -156.109375 148.832031 -224.824219 242.527344 -250.457031 277.558594 C -253.1875 281.359375 -255.507812 284.699219 -257.207031 286.792969 L -255.574219 288.085938 C -253.800781 285.726562 -251.550781 282.648438 -248.824219 278.851562 C -223.261719 244.085938 -155.429688 151.566406 -103.953125 178.246094 C -74.300781 193.351562 -41.574219 252.667969 -27.878906 290.113281 C -3.566406 355.375 127.988281 569.289062 199.0625 588.507812 C 199.660156 588.386719 200.191406 588.527344 200.71875 588.671875 Z M 200.71875 588.671875 " clip-rule="nonzero"/></clipPath><linearGradient x1="63.965414" gradientTransform="matrix(2.642106, 0.71443, -0.71443, 2.642106, -152.771936, -105.725979)" y1="117.318001" x2="632.333869" gradientUnits="userSpaceOnUse" y2="117.318001" id="6394bd742e"><stop stop-opacity="1" stop-color="rgb(1.371765%, 82.046509%, 52.922058%)" offset="0"/><stop stop-opacity="1" stop-color="rgb(1.419067%, 81.417847%, 52.537537%)" offset="0.00390625"/><stop stop-opacity="1" stop-color="rgb(1.467896%, 80.79071%, 52.154541%)" offset="0.0078125"/><stop stop-opacity="1" stop-color="rgb(1.515198%, 80.162048%, 51.77002%)" offset="0.0117188"/><stop stop-opacity="1" stop-color="rgb(1.564026%, 79.534912%, 51.387024%)" offset="0.015625"/><stop stop-opacity="1" stop-color="rgb(1.611328%, 78.90625%, 51.002502%)" offset="0.0195313"/><stop stop-opacity="1" stop-color="rgb(1.65863%, 78.277588%, 50.619507%)" offset="0.0234375"/><stop stop-opacity="1" stop-color="rgb(1.705933%, 77.648926%, 50.234985%)" offset="0.0273438"/><stop stop-opacity="1" stop-color="rgb(1.754761%, 77.02179%, 49.850464%)" offset="0.03125"/><stop stop-opacity="1" stop-color="rgb(1.802063%, 76.393127%, 49.465942%)" offset="0.0351562"/><stop stop-opacity="1" stop-color="rgb(1.850891%, 75.765991%, 49.082947%)" offset="0.0390625"/><stop stop-opacity="1" stop-color="rgb(1.898193%, 75.137329%, 48.698425%)" offset="0.0429687"/><stop stop-opacity="1" stop-color="rgb(1.947021%, 74.510193%, 48.31543%)" offset="0.046875"/><stop stop-opacity="1" stop-color="rgb(1.994324%, 73.881531%, 47.930908%)" offset="0.0507812"/><stop stop-opacity="1" stop-color="rgb(2.043152%, 73.254395%, 47.546387%)" offset="0.0546875"/><stop stop-opacity="1" stop-color="rgb(2.090454%, 72.625732%, 47.161865%)" offset="0.0585938"/><stop stop-opacity="1" stop-color="rgb(2.139282%, 71.998596%, 46.77887%)" offset="0.0625"/><stop stop-opacity="1" stop-color="rgb(2.186584%, 71.369934%, 46.394348%)" offset="0.0664063"/><stop stop-opacity="1" stop-color="rgb(2.235413%, 70.741272%, 46.011353%)" offset="0.0703125"/><stop stop-opacity="1" stop-color="rgb(2.282715%, 70.11261%, 45.626831%)" offset="0.0742188"/><stop stop-opacity="1" stop-color="rgb(2.331543%, 69.485474%, 45.24231%)" offset="0.078125"/><stop stop-opacity="1" stop-color="rgb(2.378845%, 68.856812%, 44.857788%)" offset="0.0820313"/><stop stop-opacity="1" stop-color="rgb(2.427673%, 68.229675%, 44.474792%)" offset="0.0859375"/><stop stop-opacity="1" stop-color="rgb(2.474976%, 67.601013%, 44.090271%)" offset="0.0898438"/><stop stop-opacity="1" stop-color="rgb(2.523804%, 66.973877%, 43.707275%)" offset="0.09375"/><stop stop-opacity="1" stop-color="rgb(2.571106%, 66.345215%, 43.322754%)" offset="0.0976563"/><stop stop-opacity="1" stop-color="rgb(2.619934%, 65.718079%, 42.939758%)" offset="0.101563"/><stop stop-opacity="1" stop-color="rgb(2.667236%, 65.089417%, 42.555237%)" offset="0.105469"/><stop stop-opacity="1" stop-color="rgb(2.714539%, 64.460754%, 42.170715%)" offset="0.109375"/><stop stop-opacity="1" stop-color="rgb(2.761841%, 63.832092%, 41.786194%)" offset="0.113281"/><stop stop-opacity="1" stop-color="rgb(2.810669%, 63.204956%, 41.403198%)" offset="0.117188"/><stop stop-opacity="1" stop-color="rgb(2.857971%, 62.576294%, 41.018677%)" offset="0.121094"/><stop stop-opacity="1" stop-color="rgb(2.906799%, 61.949158%, 40.635681%)" offset="0.125"/><stop stop-opacity="1" stop-color="rgb(2.954102%, 61.320496%, 40.25116%)" offset="0.128906"/><stop stop-opacity="1" stop-color="rgb(3.00293%, 60.693359%, 39.866638%)" offset="0.132812"/><stop stop-opacity="1" stop-color="rgb(3.050232%, 60.064697%, 39.482117%)" offset="0.136719"/><stop stop-opacity="1" stop-color="rgb(3.09906%, 59.437561%, 39.099121%)" offset="0.140625"/><stop stop-opacity="1" stop-color="rgb(3.146362%, 58.808899%, 38.7146%)" offset="0.144531"/><stop stop-opacity="1" stop-color="rgb(3.19519%, 58.181763%, 38.331604%)" offset="0.148438"/><stop stop-opacity="1" stop-color="rgb(3.242493%, 57.553101%, 37.947083%)" offset="0.152344"/><stop stop-opacity="1" stop-color="rgb(3.291321%, 56.924438%, 37.562561%)" offset="0.15625"/><stop stop-opacity="1" stop-color="rgb(3.338623%, 56.295776%, 37.17804%)" offset="0.160156"/><stop stop-opacity="1" stop-color="rgb(3.387451%, 55.66864%, 36.795044%)" offset="0.164063"/><stop stop-opacity="1" stop-color="rgb(3.434753%, 55.039978%, 36.410522%)" offset="0.167969"/><stop stop-opacity="1" stop-color="rgb(3.483582%, 54.412842%, 36.027527%)" offset="0.171875"/><stop stop-opacity="1" stop-color="rgb(3.530884%, 53.78418%, 35.643005%)" offset="0.175781"/><stop stop-opacity="1" stop-color="rgb(3.579712%, 53.157043%, 35.26001%)" offset="0.179688"/><stop stop-opacity="1" stop-color="rgb(3.627014%, 52.528381%, 34.875488%)" offset="0.183594"/><stop stop-opacity="1" stop-color="rgb(3.675842%, 51.901245%, 34.490967%)" offset="0.1875"/><stop stop-opacity="1" stop-color="rgb(3.723145%, 51.272583%, 34.106445%)" offset="0.191406"/><stop stop-opacity="1" stop-color="rgb(3.771973%, 50.643921%, 33.72345%)" offset="0.195313"/><stop stop-opacity="1" stop-color="rgb(3.819275%, 50.015259%, 33.338928%)" offset="0.199219"/><stop stop-opacity="1" stop-color="rgb(3.866577%, 49.388123%, 32.955933%)" offset="0.203125"/><stop stop-opacity="1" stop-color="rgb(3.913879%, 48.75946%, 32.571411%)" offset="0.207031"/><stop stop-opacity="1" stop-color="rgb(3.962708%, 48.132324%, 32.18689%)" offset="0.210938"/><stop stop-opacity="1" stop-color="rgb(4.01001%, 47.503662%, 31.802368%)" offset="0.214844"/><stop stop-opacity="1" stop-color="rgb(4.058838%, 46.876526%, 31.419373%)" offset="0.21875"/><stop stop-opacity="1" stop-color="rgb(4.10614%, 46.247864%, 31.034851%)" offset="0.222656"/><stop stop-opacity="1" stop-color="rgb(4.154968%, 45.620728%, 30.651855%)" offset="0.226562"/><stop stop-opacity="1" stop-color="rgb(4.202271%, 44.992065%, 30.267334%)" offset="0.230469"/><stop stop-opacity="1" stop-color="rgb(4.251099%, 44.364929%, 29.882812%)" offset="0.234375"/><stop stop-opacity="1" stop-color="rgb(4.298401%, 43.736267%, 29.498291%)" offset="0.238281"/><stop stop-opacity="1" stop-color="rgb(4.347229%, 43.107605%, 29.115295%)" offset="0.242188"/><stop stop-opacity="1" stop-color="rgb(4.394531%, 42.478943%, 28.730774%)" offset="0.246094"/><stop stop-opacity="1" stop-color="rgb(4.443359%, 41.851807%, 28.347778%)" offset="0.25"/><stop stop-opacity="1" stop-color="rgb(4.490662%, 41.223145%, 27.963257%)" offset="0.253906"/><stop stop-opacity="1" stop-color="rgb(4.53949%, 40.596008%, 27.580261%)" offset="0.257812"/><stop stop-opacity="1" stop-color="rgb(4.586792%, 39.967346%, 27.19574%)" offset="0.261719"/><stop stop-opacity="1" stop-color="rgb(4.63562%, 39.34021%, 26.811218%)" offset="0.265625"/><stop stop-opacity="1" stop-color="rgb(4.682922%, 38.711548%, 26.426697%)" offset="0.269531"/><stop stop-opacity="1" stop-color="rgb(4.73175%, 38.084412%, 26.043701%)" offset="0.273438"/><stop stop-opacity="1" stop-color="rgb(4.779053%, 37.45575%, 25.65918%)" offset="0.277344"/><stop stop-opacity="1" stop-color="rgb(4.827881%, 36.828613%, 25.276184%)" offset="0.28125"/><stop stop-opacity="1" stop-color="rgb(4.875183%, 36.199951%, 24.891663%)" offset="0.285156"/><stop stop-opacity="1" stop-color="rgb(4.922485%, 35.571289%, 24.507141%)" offset="0.289062"/><stop stop-opacity="1" stop-color="rgb(4.969788%, 34.942627%, 24.12262%)" offset="0.292969"/><stop stop-opacity="1" stop-color="rgb(5.018616%, 34.315491%, 23.739624%)" offset="0.296875"/><stop stop-opacity="1" stop-color="rgb(5.065918%, 33.686829%, 23.355103%)" offset="0.300781"/><stop stop-opacity="1" stop-color="rgb(5.114746%, 33.059692%, 22.972107%)" offset="0.304688"/><stop stop-opacity="1" stop-color="rgb(5.162048%, 32.43103%, 22.587585%)" offset="0.308594"/><stop stop-opacity="1" stop-color="rgb(5.210876%, 31.803894%, 22.203064%)" offset="0.3125"/><stop stop-opacity="1" stop-color="rgb(5.258179%, 31.175232%, 21.818542%)" offset="0.316406"/><stop stop-opacity="1" stop-color="rgb(5.307007%, 30.548096%, 21.435547%)" offset="0.320312"/><stop stop-opacity="1" stop-color="rgb(5.354309%, 29.919434%, 21.051025%)" offset="0.324219"/><stop stop-opacity="1" stop-color="rgb(5.403137%, 29.290771%, 20.66803%)" offset="0.328125"/><stop stop-opacity="1" stop-color="rgb(5.450439%, 28.662109%, 20.283508%)" offset="0.332031"/><stop stop-opacity="1" stop-color="rgb(5.499268%, 28.034973%, 19.900513%)" offset="0.335937"/><stop stop-opacity="1" stop-color="rgb(5.54657%, 27.406311%, 19.515991%)" offset="0.339844"/><stop stop-opacity="1" stop-color="rgb(5.595398%, 26.779175%, 19.13147%)" offset="0.34375"/><stop stop-opacity="1" stop-color="rgb(5.6427%, 26.150513%, 18.746948%)" offset="0.347656"/><stop stop-opacity="1" stop-color="rgb(5.691528%, 25.523376%, 18.363953%)" offset="0.351562"/><stop stop-opacity="1" stop-color="rgb(5.738831%, 24.894714%, 17.979431%)" offset="0.355469"/><stop stop-opacity="1" stop-color="rgb(5.787659%, 24.267578%, 17.596436%)" offset="0.359375"/><stop stop-opacity="1" stop-color="rgb(5.834961%, 23.638916%, 17.211914%)" offset="0.363281"/><stop stop-opacity="1" stop-color="rgb(5.883789%, 23.01178%, 16.827393%)" offset="0.367188"/><stop stop-opacity="1" stop-color="rgb(5.931091%, 22.383118%, 16.442871%)" offset="0.371094"/><stop stop-opacity="1" stop-color="rgb(5.978394%, 21.754456%, 16.059875%)" offset="0.375"/><stop stop-opacity="1" stop-color="rgb(6.025696%, 21.125793%, 15.675354%)" offset="0.378906"/><stop stop-opacity="1" stop-color="rgb(6.074524%, 20.498657%, 15.292358%)" offset="0.382812"/><stop stop-opacity="1" stop-color="rgb(6.121826%, 19.869995%, 14.907837%)" offset="0.386719"/><stop stop-opacity="1" stop-color="rgb(6.170654%, 19.242859%, 14.523315%)" offset="0.390625"/><stop stop-opacity="1" stop-color="rgb(6.217957%, 18.614197%, 14.138794%)" offset="0.394531"/><stop stop-opacity="1" stop-color="rgb(6.266785%, 17.987061%, 13.755798%)" offset="0.398438"/><stop stop-opacity="1" stop-color="rgb(6.314087%, 17.358398%, 13.371277%)" offset="0.402344"/><stop stop-opacity="1" stop-color="rgb(6.362915%, 16.731262%, 12.988281%)" offset="0.40625"/><stop stop-opacity="1" stop-color="rgb(6.410217%, 16.1026%, 12.60376%)" offset="0.410156"/><stop stop-opacity="1" stop-color="rgb(6.459045%, 15.473938%, 12.220764%)" offset="0.414063"/><stop stop-opacity="1" stop-color="rgb(6.506348%, 14.845276%, 11.836243%)" offset="0.417969"/><stop stop-opacity="1" stop-color="rgb(6.555176%, 14.21814%, 11.451721%)" offset="0.421875"/><stop stop-opacity="1" stop-color="rgb(6.602478%, 13.589478%, 11.0672%)" offset="0.425781"/><stop stop-opacity="1" stop-color="rgb(6.651306%, 12.962341%, 10.684204%)" offset="0.429688"/><stop stop-opacity="1" stop-color="rgb(6.698608%, 12.333679%, 10.299683%)" offset="0.433594"/><stop stop-opacity="1" stop-color="rgb(6.747437%, 11.706543%, 9.916687%)" offset="0.4375"/><stop stop-opacity="1" stop-color="rgb(6.794739%, 11.077881%, 9.532166%)" offset="0.441406"/><stop stop-opacity="1" stop-color="rgb(6.843567%, 10.450745%, 9.147644%)" offset="0.445313"/><stop stop-opacity="1" stop-color="rgb(6.890869%, 9.822083%, 8.763123%)" offset="0.449219"/><stop stop-opacity="1" stop-color="rgb(6.939697%, 9.194946%, 8.380127%)" offset="0.453125"/><stop stop-opacity="1" stop-color="rgb(6.987%, 8.566284%, 7.995605%)" offset="0.457031"/><stop stop-opacity="1" stop-color="rgb(7.035828%, 7.937622%, 7.61261%)" offset="0.460937"/><stop stop-opacity="1" stop-color="rgb(7.067871%, 7.518005%, 7.356262%)" offset="0.464844"/><stop stop-opacity="1" stop-color="rgb(7.099915%, 7.099915%, 7.099915%)" offset="0.46875"/><stop stop-opacity="1" stop-color="rgb(7.099915%, 7.099915%, 7.099915%)" offset="0.5"/><stop stop-opacity="1" stop-color="rgb(7.099915%, 7.099915%, 7.099915%)" offset="1"/></linearGradient><clipPath id="b59c54945e"><rect x="0" width="1448" y="0" height="892"/></clipPath></defs><g mask="url(#662e15558e)"><g transform="matrix(1, 0, 0, 1, 509, 122)"><g clip-path="url(#4b8a8d1244)"><g clip-path="url(#546d1c8f4b)"><g clip-path="url(#ebcdf7e374)"><g clip-path="url(#5dcd8c37e5)"><g clip-path="url(#dd9fe372db)"><path fill="url(#26c94926a0)" d="M 1210.167969 1438.113281 L 1690.847656 288.992188 L 263.230469 -308.183594 L -217.449219 840.9375 Z M 1210.167969 1438.113281 " fill-rule="nonzero"/></g></g></g></g></g></g></g><g mask="url(#de8c5b1d3d)"><g transform="matrix(1, 0, 0, 1, 0, -0.000000000000003846)"><g clip-path="url(#b59c54945e)"><g clip-path="url(#3d29b33a6f)"><g clip-path="url(#1db24ac9da)"><g clip-path="url(#f53453f079)"><g clip-path="url(#dba3c872c2)"><path fill="url(#6394bd742e)" d="M 95.707031 -353.949219 L -192.710938 712.6875 L 1308.976562 1118.746094 L 1597.398438 52.109375 Z M 95.707031 -353.949219 " fill-rule="nonzero"/></g></g></g></g></g></g></g></svg>